<svg viewBox="0 0 800 800" width="800" height="800" xmlns="http://www.w3.org/2000/svg">
	<defs>
		<filter id="shadow" x="-50%" y="-50%" width="200%" height="200%">
			<feDropShadow dx="0" dy="0" stdDeviation="25" flood-color="#24273a" flood-opacity=".5"/>
		</filter>
	</defs>
	<path fill="#181926" d="m0 0h800v800h-800z"/>
	<path fill="#24273a" filter="url(#shadow)" d="m579-221l442 442-800 800-442-442z"/>
	<path fill="#c6a0f6" d="m469.9 509.7l-37.1 37.1-33.2-33.2-78.7 78.7-51.7-51.7-28.5-163.1 40.9-40.8 32.6 179.6 9.2 9.2 44.1-44.1-38.7-38.6 37.2-37.1zm154.7-154.7l-118.8 118.8-33.2-33.1 0.5-136.6q0-20.8-14.6-35.4-10.2-10.2-23-10.7-12.7-0.7-22.6 9.2-10.1 10.1-9.6 23.5 0.7 13.1 11.6 24l-37.1 37.1q-17.3-17.3-22.5-37.8-5.2-21.1 1-42.1 6.4-21.3 24.5-39.4 17.5-17.5 37.6-23.7 19.8-6.5 39.6-1.5 19.5 4.7 35.6 20.8 14.4 14.3 21.8 34.1 7.2 19.6 6.4 46.6l-1.9 84.1 71.2-71.3z"/>
	<path fill="#c6a0f6" d="m177.4 1025.9l848.5-848.5 36.7 36.7-848.5 848.5zm-440-440l848.5-848.5 36.8 36.8-848.5 848.5z"/>
</svg>

